<svg xmlns="http://www.w3.org/2000/svg" xmlns:xlink="http://www.w3.org/1999/xlink" width="256" height="256" viewBox="0 0 256 256">
  <defs>
    <linearGradient id="linear-gradient" x1="-0.066" y1="0.5" x2="1" y2="0.5" gradientUnits="objectBoundingBox">
      <stop offset="0"/>
      <stop offset="0" stop-color="#000102" stop-opacity="0.251"/>
      <stop offset="0.01" stop-color="#00031d" stop-opacity="0.212"/>
      <stop offset="0.054" stop-color="#000103" stop-opacity="0"/>
      <stop offset="0.448" stop-color="#000639" stop-opacity="0.435"/>
      <stop offset="0.64" stop-color="#5231ff"/>
      <stop offset="0.704" stop-color="#7947c7"/>
      <stop offset="0.773" stop-color="#eb8824"/>
      <stop offset="1" stop-color="#ff0377"/>
    </linearGradient>
  </defs>
  <g id="Group_1" data-name="Group 1" transform="translate(-280 -566)">
    <g id="Rectangle_13" data-name="Rectangle 13" transform="translate(280 566)" stroke="#000" stroke-width="1">
      <path d="M0,0H256a0,0,0,0,1,0,0V128A128,128,0,0,1,128,256H32A32,32,0,0,1,0,224V0A0,0,0,0,1,0,0Z" stroke="none"/>
      <path d="M1,.5H255a.5.5,0,0,1,.5.5V128A127.5,127.5,0,0,1,128,255.5H32A31.5,31.5,0,0,1,.5,224V1A.5.5,0,0,1,1,.5Z" fill="none"/>
    </g>
    <g id="Rectangle_1" data-name="Rectangle 1" transform="translate(280 566)" stroke="#000" stroke-width="1" fill="url(#linear-gradient)">
      <path d="M0,0H256a0,0,0,0,1,0,0V128A128,128,0,0,1,128,256H32A32,32,0,0,1,0,224V0A0,0,0,0,1,0,0Z" stroke="none"/>
      <path d="M1,.5H255a.5.5,0,0,1,.5.5V128A127.5,127.5,0,0,1,128,255.5H32A31.5,31.5,0,0,1,.5,224V1A.5.5,0,0,1,1,.5Z" fill="none"/>
    </g>
  </g>
</svg>
